<svg width="1000" height="253" viewBox="0 0 1000 253" fill="none" xmlns="http://www.w3.org/2000/svg">
<rect y="46" width="1000" height="207" fill="#E9CBA3"/>
<path d="M0 137.191H726.253C755.368 137.191 778.97 161.217 778.97 190.332C778.97 219.446 755.368 243.472 726.253 243.472H0V137.191Z" fill="white"/>
<path d="M714.834 156.034L722.704 180.257C722.955 181.028 723.673 181.55 724.484 181.55L749.954 181.55L729.348 196.521C728.692 196.998 728.418 197.842 728.669 198.613L736.539 222.837L715.934 207.866C715.278 207.389 714.39 207.389 713.734 207.866L693.128 222.837L700.999 198.613C701.249 197.842 700.975 196.998 700.319 196.521L679.714 181.55L705.183 181.55C705.994 181.55 706.713 181.028 706.963 180.257L714.834 156.034Z" stroke="#E9CBA3" stroke-width="3.74317" stroke-linecap="round" stroke-linejoin="round"/>
<path d="M0 0H966.935C985.196 0 1000 14.8035 1000 33.0646V126.606H0V0Z" fill="#C47233"/>
<circle cx="924.827" cy="63.3231" r="29.5086" fill="#9C5117"/>
<circle cx="753.636" cy="63.3231" r="29.5086" fill="#9C5117"/>
<circle cx="839.979" cy="63.3231" r="29.5086" fill="#9C5117"/>
<circle cx="848.839" cy="189.841" r="37.6812" fill="#E9CBA3" stroke="black" stroke-width="0.124772"/>
<path d="M864.561 187.659C864.561 190.108 862.95 192.473 860.035 194.274C857.134 196.065 853.068 197.204 848.528 197.204C843.987 197.204 839.921 196.065 837.02 194.274C834.105 192.473 832.494 190.108 832.494 187.659C832.494 185.209 834.105 182.844 837.02 181.044C839.921 179.252 843.987 178.114 848.528 178.114C853.068 178.114 857.134 179.252 860.035 181.044C862.95 182.844 864.561 185.209 864.561 187.659Z" fill="black" stroke="black" stroke-width="1.87158"/>
<path d="M842.905 191.139L843.997 188.609L846.89 186.634L848.582 184.289L850.875 187.128L853.058 188.609L854.15 191.139C854.168 193.073 865.366 200.767 872.484 201.508H827.316C834.435 200.767 842.887 193.073 842.905 191.139Z" fill="#F2A8C3" stroke="#F2A8C3" stroke-width="1.12295"/>
<path d="M877.588 198.407L862.502 197.015L870.974 202.767L879.097 203.253L877.588 198.407Z" fill="#E9CBA3"/>
<path d="M836.923 195.768H814.963L816.148 201.625L826.691 203.566L836.923 195.768Z" fill="#E9CBA3"/>
<path d="M824.572 169.754C822.176 169.754 816.17 178.072 813.467 182.231L819.581 168.943L830.186 158.711L848.341 154.032L860.818 156.465L870.301 161.706L879.721 171.064L883.464 182.231C880.761 178.072 874.755 169.754 872.359 169.754C869.964 169.754 864.748 170.169 862.44 170.377L857.823 169.754C859.82 167.82 863.213 163.877 860.818 163.577C858.422 163.278 852.209 165.116 849.401 166.073L847.53 166.073C844.722 165.116 838.509 163.278 836.113 163.577C833.717 163.877 837.111 167.82 839.107 169.754L834.491 170.377C832.183 170.169 826.967 169.754 824.572 169.754Z" fill="#C47233"/>
<path d="M833.24 168.572C832.554 169.071 830.75 170.276 829.934 170.816H831.526C832.669 171.647 835.224 173.309 836.302 173.309C837.649 173.309 838.751 172.81 839.608 172.436C840.294 172.137 841.69 172.561 842.302 172.81L843.159 171.19C842.792 170.899 841.592 170.043 839.731 168.946C837.869 167.849 836.914 167.658 836.669 167.699C835.812 167.783 833.926 168.073 833.24 168.572Z" fill="black" stroke="black" stroke-width="0.873405" stroke-linejoin="round"/>
<path d="M864.311 168.572C864.997 169.071 866.801 170.276 867.617 170.816H866.025C864.882 171.647 862.327 173.309 861.249 173.309C859.902 173.309 858.8 172.81 857.943 172.436C857.257 172.137 855.861 172.561 855.249 172.81L854.391 171.19C854.759 170.899 855.959 170.043 857.82 168.946C859.682 167.849 860.637 167.658 860.882 167.699C861.739 167.783 863.625 168.073 864.311 168.572Z" fill="black" stroke="black" stroke-width="0.873405" stroke-linejoin="round"/>
<ellipse cx="848.776" cy="211.428" rx="25.3288" ry="16.158" fill="#F2A8C3"/>
<path d="M854.018 188.968C853.977 189.55 854.205 190.989 855.453 192.087C857.013 193.46 858.572 194.707 861.005 196.267C863.438 197.827 869.615 201.819 870.862 203.504C872.11 205.188 873.171 206.062 873.982 209.056C874.631 211.452 873.503 214.92 872.859 216.355" stroke="#EF5E92" stroke-width="2.49544"/>
<path d="M843.105 188.906C843.146 189.489 842.918 190.928 841.67 192.026C840.11 193.398 838.551 194.646 836.118 196.205C833.685 197.765 827.508 201.758 826.261 203.442C825.013 205.127 823.952 206 823.141 208.995C822.492 211.39 823.62 214.859 824.264 216.294" stroke="#EF5E92" stroke-width="2.49544"/>
<path d="M847.965 183.041C847.965 184.492 847.01 185.952 845.156 187.098C843.317 188.234 840.717 188.968 837.796 188.968C834.875 188.968 832.275 188.234 830.436 187.098C828.582 185.952 827.627 184.492 827.627 183.041C827.627 181.59 828.582 180.13 830.436 178.985C832.275 177.848 834.875 177.115 837.796 177.115C840.717 177.115 843.317 177.848 845.156 178.985C847.01 180.13 847.965 181.59 847.965 183.041Z" fill="#E9CBA3" stroke="black" stroke-width="1.87158"/>
<path d="M869.301 183.041C869.301 184.492 868.346 185.952 866.492 187.098C864.653 188.234 862.053 188.968 859.132 188.968C856.211 188.968 853.611 188.234 851.772 187.098C849.918 185.952 848.963 184.492 848.963 183.041C848.963 181.59 849.918 180.13 851.772 178.985C853.611 177.848 856.211 177.115 859.132 177.115C862.053 177.115 864.653 177.848 866.492 178.985C868.346 180.13 869.301 181.59 869.301 183.041Z" fill="#E9CBA3" stroke="black" stroke-width="1.87158"/>
<path d="M857.819 193.522C853.016 189.529 848.836 192.711 848.836 192.711C848.836 192.711 844.656 189.28 839.166 193.522" stroke="#EF5E92" stroke-width="2.49544" stroke-linejoin="round"/>
<path d="M859.505 192.524C854.646 188.931 848.903 190.728 848.903 190.728C848.903 190.728 842.719 188.931 837.607 192.524" stroke="black" stroke-width="1.87158" stroke-linejoin="round"/>
<path d="M848.337 183.728L856.822 190.528L852.268 189.966L848.774 191.401L845.031 189.966L840.602 190.528L848.337 183.728Z" fill="black"/>
<rect x="824.068" y="175.057" width="49.6593" height="9.23314" fill="#E9CBA3"/>
<path d="M840.979 183.104C840.979 184.801 846.053 184.602 848.59 184.29C851.127 184.602 856.201 184.801 856.201 183.104C856.201 180.983 854.392 178.176 852.395 178.176H844.784C842.788 178.176 840.979 180.983 840.979 183.104Z" fill="black" stroke="black" stroke-width="0.124772"/>
<circle cx="848.839" cy="189.841" r="36.1839" stroke="black" stroke-width="3.11931"/>
<ellipse cx="859.817" cy="169.191" rx="0.686247" ry="0.499089" fill="white"/>
<ellipse cx="859.817" cy="169.191" rx="0.686247" ry="0.499089" fill="white"/>
<ellipse cx="859.817" cy="169.191" rx="0.686247" ry="0.499089" fill="white"/>
<ellipse cx="834.739" cy="169.191" rx="0.686247" ry="0.499089" fill="white"/>
<ellipse cx="834.739" cy="169.191" rx="0.686247" ry="0.499089" fill="white"/>
<ellipse cx="834.739" cy="169.191" rx="0.686247" ry="0.499089" fill="white"/>
<ellipse cx="848.777" cy="212.301" rx="21.4608" ry="8.67167" fill="white" fill-opacity="0.2"/>
<path d="M859.552 209.056C859.552 203.001 854.643 198.092 848.587 198.092C842.532 198.092 837.623 203.001 837.623 209.056C837.623 215.112 842.532 220.021 848.587 220.021C854.643 220.021 859.552 215.112 859.552 209.056Z" stroke="#EF5E92" stroke-width="1.99636"/>
<path d="M847.129 211.413C847.129 211.061 847.021 210.772 846.806 210.545C846.59 210.313 846.23 210.107 845.726 209.925C845.222 209.739 844.83 209.567 844.55 209.41C843.618 208.894 843.152 208.129 843.152 207.116C843.152 206.43 843.354 205.866 843.758 205.424C844.162 204.982 844.59 204.732 845.282 204.649V203.285H846.362V204.649C847.057 204.752 847.595 205.058 847.975 205.567C848.355 206.071 848.545 206.728 848.545 207.538H847.093C847.093 207.017 846.979 206.608 846.752 206.311C846.528 206.009 846.222 205.858 845.834 205.858C845.45 205.858 845.15 205.965 844.934 206.18C844.718 206.395 844.61 206.703 844.61 207.104C844.61 207.464 844.716 207.753 844.928 207.972C845.144 208.187 845.508 208.391 846.02 208.586C846.532 208.78 846.933 208.96 847.225 209.125C847.517 209.29 847.763 209.481 847.963 209.695C848.163 209.906 848.317 210.15 848.425 210.427C848.533 210.704 848.587 211.028 848.587 211.4C848.587 212.099 848.379 212.665 847.963 213.099C847.551 213.533 847.051 213.795 846.312 213.874V214.827H845.282V213.874C844.49 213.783 843.88 213.49 843.452 212.994C843.028 212.498 842.816 211.84 842.816 211.022H844.274C844.274 211.543 844.4 211.946 844.652 212.231C844.908 212.516 845.268 212.659 845.732 212.659C846.188 212.659 846.534 212.545 846.77 212.318C847.009 212.091 847.129 211.789 847.129 211.413Z" fill="#EF5E92"/>
<path d="M851.474 208.094H850.512V210.979H851.474V208.094Z" fill="#EF5E92"/>
<path d="M853.397 207.133H852.436V211.942H853.397V207.133Z" fill="#EF5E92"/>
<path d="M855.321 206.171H854.359V212.903H855.321V206.171Z" fill="#EF5E92"/>
</svg>
