<svg width="1002" height="253" viewBox="0 0 1002 253" fill="none" xmlns="http://www.w3.org/2000/svg">
<rect width="1001.13" height="253" fill="#413FB8"/>
<path d="M526.626 138.936C526.626 133.232 525.791 127.726 525.791 122.04C525.791 120.847 524.959 114.972 525.977 114.057C528.901 111.424 545.388 125.245 547.328 128.91C550.198 134.332 552.532 132.063 557.54 129.56C562.345 127.157 567.529 129.385 572.393 127.889C574.865 127.128 576.756 127.928 576.756 124.918C576.756 121.98 575.921 119.459 575.921 116.563C575.921 113.592 575.921 110.622 575.921 107.651C575.921 105.771 576.385 104.427 576.71 102.638C576.978 101.162 576.564 102.182 577.592 102.824C583.274 106.375 586.994 114.741 591.609 119.534C594.851 122.9 596.168 127.926 600.15 130.581" stroke="white" stroke-width="2.96319" stroke-linecap="round" stroke-linejoin="round"/>
<path d="M528.297 150.633C528.297 156.622 529.1 167.235 533.124 171.706C535.866 174.752 536.259 175.281 535.816 179.04C535.426 182.356 532.702 183.477 531.221 186.142C527.125 193.514 530.357 204.687 536.002 209.768C536.774 210.463 539.279 210.06 540.365 210.603C541.861 211.351 544.381 212.333 546.028 212.46C549.724 212.744 553.268 213.295 557.122 213.295C562.999 213.295 568.895 204.483 572.114 200.345C574.514 197.26 576.125 194.801 579.68 192.826C583.485 190.712 587.25 188.892 590.959 186.745C595.368 184.193 601.672 180.391 604.141 175.698C606.439 171.333 607.249 167.007 608.922 162.655C610.795 157.787 610.499 150.208 609.387 145.202C608.964 143.299 606.561 137.129 605.163 136.43" stroke="white" stroke-width="2.96319" stroke-linecap="round" stroke-linejoin="round"/>
<path d="M573.414 157.317C574.33 154.51 575.889 144.15 579.263 142.463C579.538 142.326 587.112 152.457 587.618 153.975" stroke="white" stroke-width="2.96319" stroke-linecap="round" stroke-linejoin="round"/>
<path d="M554.199 160.659C553.92 160.372 546.395 150.574 545.194 151.654C543.188 153.461 541.3 157.918 539.16 158.988" stroke="white" stroke-width="2.96319" stroke-linecap="round" stroke-linejoin="round"/>
<path d="M534.146 190.737C537.179 190.737 540.302 190.558 543.337 190.737C545.494 190.863 543.389 194.807 543.337 195.75C543.153 199.052 541.947 206.239 538.324 207.447" stroke="white" stroke-width="2.96319" stroke-linecap="round" stroke-linejoin="round"/>
<path d="M425.114 127.13C413.264 129.732 414.434 144.11 418.894 153.031C424.034 163.31 435.737 161.529 443.681 167.884C446.549 170.179 451.281 170.75 453.985 173.454C455.666 175.135 458.774 175.978 460.019 178.096C460.964 179.702 462.592 181.411 463.918 182.737C466.242 185.061 467.012 191.464 471.067 191.464C477.427 191.464 479.811 190.58 484.249 185.801C489.838 179.781 496.765 167.989 490.654 160.132C488.247 157.037 485.344 154.311 482.578 151.545C478.725 147.693 476.595 141.102 475.43 135.857C474.486 131.609 475.137 126.217 472.273 122.535C466.91 115.639 457.957 111.256 449.297 111.256C441.288 111.256 435.429 115.938 428.27 118.59C425.67 119.553 423.752 121.63 422.608 124.206C421.729 126.183 420.937 129.086 420.937 125.459" stroke="white" stroke-width="2.96319" stroke-linecap="round" stroke-linejoin="round"/>
<path d="M420.102 124.624C410.996 124.624 400.885 129.163 400.885 139.477C400.885 147.432 401.315 157.721 397.961 165.099C395.194 171.187 390.859 176.424 390.859 183.109C390.859 188.628 397.925 196.643 402.185 199.355C405.798 201.654 416.418 199.962 420.937 200.608C424.45 201.11 426.854 200.721 429.292 198.148C431.312 196.016 434.971 191.179 435.141 188.122C435.528 181.158 430.951 174.697 427.714 168.627C424.998 163.535 427.621 156.451 427.621 151.36" stroke="white" stroke-width="2.96319" stroke-linecap="round" stroke-linejoin="round"/>
<path d="M455.193 110.421C458.936 108.96 463.183 106.422 466.844 109.168C469.164 110.908 470.118 114.092 472.321 115.805C475.316 118.134 476.081 125.944 476.081 129.637" stroke="white" stroke-width="2.96319" stroke-linecap="round" stroke-linejoin="round"/>
<path d="M473.574 171.412C473.416 171.794 469.058 179.599 471.903 179.767C473.379 179.854 477.203 178.994 478.402 179.953C482.868 183.526 485.271 178.085 485.271 174.336C485.271 171.54 484.351 163.475 479.84 165.981C475.888 168.177 476.336 172.247 471.068 172.247" stroke="white" stroke-width="2.96319" stroke-linecap="round" stroke-linejoin="round"/>
<path d="M435.166 149.206C436.768 142.085 440.511 142.522 446.863 142.522" stroke="white" stroke-width="2.96319" stroke-linecap="round" stroke-linejoin="round"/>
<path d="M455.193 138.827C459.682 134.198 460.672 133.814 466.89 133.814" stroke="white" stroke-width="2.96319" stroke-linecap="round" stroke-linejoin="round"/>
<path d="M531.325 195.993C530.783 196.695 529.441 198.498 530.564 199.232C532.241 200.329 534.398 197.977 535.069 196.635C535.687 195.4 535.746 193.923 536.324 192.66C536.462 192.358 536.53 192.038 536.673 191.735C536.802 191.463 537.136 191.031 537.136 190.737C537.136 190.303 536.513 191.341 536.216 191.658C535.635 192.276 535.083 192.909 534.426 193.447C532.973 194.636 531.986 196.243 531.624 198.101C531.554 198.459 531.347 199.059 531.788 199.232C532.115 199.361 532.444 199.424 532.796 199.417C534.395 199.387 535.526 198.064 536.38 196.851C537.001 195.971 537.436 195.002 537.81 193.997C537.883 193.8 538.141 193.399 538.077 193.175C538.021 192.98 537.414 193.357 537.352 193.411C536.19 194.43 535.816 195.887 535.624 197.361C535.502 198.301 535.433 199.461 535.897 200.317C536.481 201.396 537.9 201.162 538.622 200.441C539.365 199.698 539.1 198.362 539.1 197.422C539.1 196.144 539.1 194.865 539.1 193.586C539.1 193.079 539.335 191.929 538.967 191.55C538.163 190.723 536.594 191.312 535.907 191.941C534.726 193.021 533.768 194.736 533.238 196.25C533.05 196.789 532.91 197.455 532.899 198.029C532.888 198.628 532.872 198.829 533.362 199.212C533.958 199.678 534.854 199.876 535.583 200.019C536.214 200.143 537.025 200.295 537.666 200.153C538.275 200.017 538.742 198.741 538.802 198.214C538.947 196.943 538.343 196.012 537.177 195.478C535.681 194.794 534.344 195.401 533.089 196.27C532.186 196.895 531.415 197.662 530.641 198.435C530.396 198.681 530.4 198.906 530.4 199.232" stroke="white" stroke-opacity="0.5" stroke-width="0.705522" stroke-linecap="round" stroke-linejoin="round"/>
<path d="M534.007 200.367C533.465 201.069 532.123 202.872 533.246 203.606C534.923 204.703 537.08 202.351 537.751 201.009C538.368 199.774 538.428 198.297 539.005 197.034C539.143 196.732 539.211 196.412 539.355 196.109C539.484 195.837 539.818 195.405 539.818 195.111C539.818 194.677 539.194 195.716 538.897 196.032C538.317 196.65 537.765 197.283 537.108 197.821C535.655 199.01 534.667 200.617 534.305 202.475C534.236 202.833 534.029 203.433 534.47 203.606C534.797 203.735 535.126 203.798 535.478 203.791C537.077 203.761 538.207 202.438 539.062 201.225C539.683 200.345 540.117 199.376 540.491 198.371C540.565 198.174 540.823 197.773 540.759 197.549C540.703 197.354 540.095 197.731 540.034 197.785C538.872 198.804 538.498 200.261 538.306 201.735C538.183 202.675 538.115 203.836 538.578 204.691C539.163 205.77 540.582 205.537 541.304 204.815C542.046 204.072 541.782 202.736 541.782 201.796C541.782 200.518 541.782 199.239 541.782 197.96C541.782 197.453 542.017 196.303 541.648 195.924C540.845 195.097 539.275 195.686 538.589 196.315C537.408 197.395 536.45 199.11 535.92 200.624C535.731 201.163 535.591 201.829 535.58 202.403C535.569 203.002 535.554 203.203 536.043 203.586C536.639 204.052 537.536 204.25 538.265 204.393C538.896 204.517 539.707 204.669 540.347 204.527C540.957 204.391 541.424 203.115 541.484 202.588C541.628 201.317 541.025 200.386 539.859 199.852C538.363 199.168 537.026 199.775 535.771 200.644C534.868 201.269 534.096 202.036 533.323 202.809C533.078 203.055 533.081 203.28 533.081 203.606" stroke="white" stroke-opacity="0.5" stroke-width="0.705522" stroke-linecap="round" stroke-linejoin="round"/>
<path d="M554.82 214.57C555.624 215.568 557.157 219.642 558.926 219.249C559.823 219.049 560.747 216.991 560.92 216.212C561.181 215.038 561.623 214.154 561.623 212.928" stroke="white" stroke-width="2.96319" stroke-linecap="round" stroke-linejoin="round"/>
<path d="M536.619 212.363C536.619 213.652 536.716 214.752 537.558 215.752C537.822 216.066 538.954 218.213 539.538 217.629C540.075 217.092 540.469 215.942 540.972 215.296C541.34 214.823 541.279 213.787 541.78 213.536" stroke="white" stroke-width="2.96319" stroke-linecap="round" stroke-linejoin="round"/>
<path d="M515.498 57.8089C516.144 57.4742 516.686 57.0533 517.276 56.648C517.531 56.4732 517.802 56.2085 518.069 56.0675C518.714 55.7257 519.399 55.3875 520.013 54.9895C520.821 54.4658 521.862 53.7606 522.841 53.6673C524.104 53.5471 525.258 53.6866 526.407 54.2017C527.051 54.4903 527.679 54.7286 528.259 55.1369C528.704 55.4499 529.234 55.9347 529.719 56.1504C529.913 56.2366 530.108 56.364 530.175 56.565" stroke="white" stroke-width="2.96319" stroke-linecap="round" stroke-linejoin="round"/>
<path d="M501.153 57.3942C498.773 57.004 497.015 55.2287 494.934 54.1602C493.895 53.6268 492.999 53.6626 491.829 53.6626C491.01 53.6626 490.307 54.231 489.622 54.6162C489.009 54.9608 488.43 55.3571 487.821 55.7173C487.355 55.9925 486.82 56.2445 486.393 56.5649" stroke="white" stroke-width="2.96319" stroke-linecap="round" stroke-linejoin="round"/>
<path d="M502.645 64.2504C501.787 64.4386 501.149 65.2173 500.613 65.872C500.315 66.2358 500.202 66.7389 499.89 67.0883C499.679 67.3241 499.391 67.7069 499.332 68.0281C499.26 68.4242 498.997 70.177 499.365 70.3868C499.646 70.5478 499.851 70.9075 500.157 71.0686C500.677 71.3424 501.4 71.5328 501.977 71.6675C503.349 71.9876 504.879 71.8794 506.284 71.8794C507.85 71.8794 509.434 71.9623 511.011 71.9623C512.22 71.9623 513.382 71.4648 514.586 71.4648C515.221 71.4648 516.633 71.435 516.907 70.6816C517.429 69.2461 516.663 68.1067 516.18 66.8026C515.607 65.2566 514.044 64.4546 512.577 63.9832C510.734 63.3909 508.665 63.9188 506.791 63.9188C505.904 63.9188 505.022 64.0846 504.137 64.0846C503.555 64.0846 503.039 64.3334 502.479 64.3334" stroke="white" stroke-width="2.96319" stroke-linecap="round" stroke-linejoin="round"/>
<path d="M505.867 72.0619C504.973 72.7005 503.769 73.152 502.969 73.8712C502.553 74.2457 501.908 74.2469 501.485 74.6063C501.253 74.8041 500.585 75.0801 500.27 75.1152C499.066 75.2489 497.997 75.8785 496.736 75.8785C495.452 75.8785 494.186 76.0057 492.891 76.0057C490.896 76.0057 488.475 75.8574 486.756 74.7335C485.846 74.1387 484.805 73.6544 484.084 72.8535C483.652 72.3736 482.868 71.989 482.586 71.4258" stroke="white" stroke-width="2.96319" stroke-linecap="round" stroke-linejoin="round"/>
<path d="M509.557 72.3166C510.354 73.1143 511.118 74.1562 512.355 74.2249C513.55 74.2913 514.692 74.9237 515.918 74.9882C516.989 75.0446 517.983 75.6929 519.098 75.7515C519.688 75.7826 520.27 76.1158 520.879 76.1332C521.451 76.1495 522.025 76.1332 522.597 76.1332C523.445 76.1332 524.293 76.1332 525.141 76.1332C525.707 76.1332 526.182 75.8229 526.731 75.7445C527.203 75.6771 527.821 75.4764 528.194 75.1861C528.677 74.8104 532.296 71.4097 532.075 71.2988" stroke="white" stroke-width="2.96319" stroke-linecap="round" stroke-linejoin="round"/>
<path d="M487.801 76.0048C487.838 77.5727 489.33 79.0968 490.282 80.2596C490.845 80.9478 491.626 81.41 492.19 82.1043C492.742 82.7841 493.782 83.3635 494.543 83.7653C497.286 85.2128 500.495 85.7713 503.505 86.3733C505.093 86.6907 506.807 86.5641 508.418 86.5641C509.892 86.5641 511.466 86.3254 512.891 85.928C515.519 85.1958 518.327 85.2059 520.942 84.4014C522.859 83.8113 524.233 82.5255 525.585 81.0936C526.25 80.3892 526.694 79.6192 527.239 78.8319C527.607 78.3007 528.118 77.79 528.391 77.1993C528.675 76.5843 529.147 76.1401 529.147 75.4323C529.147 75.238 529.265 75.0854 529.275 74.8598C529.282 74.6702 529.529 73.1829 529.529 73.7149" stroke="white" stroke-width="2.96319" stroke-linecap="round" stroke-linejoin="round"/>
<path d="M483.095 39.6208C481.928 39.0258 480.843 38.2667 479.723 37.5852C478.964 37.1232 478.269 36.4067 477.426 36.1151C476.195 35.6889 474.959 35.3217 473.673 35.161C473.052 35.0834 471.813 34.9679 471.419 35.6769C471.176 36.1131 471.221 36.6793 471.065 37.147C470.802 37.9358 470.442 38.6983 470.189 39.4935C469.957 40.2221 469.838 41.0874 469.708 41.8401C469.533 42.8541 469.313 43.8289 469.164 44.8439C468.911 46.5646 468.719 48.3436 468.719 50.0811C468.719 51.7969 468.846 53.4434 468.846 55.1416" stroke="white" stroke-width="2.96319" stroke-linecap="round" stroke-linejoin="round"/>
<path d="M532.965 39.6203C533.572 39.0135 534.375 38.591 534.937 37.9665C535.279 37.5865 535.899 37.1956 536.145 36.765C536.662 35.8602 537.802 34.8121 538.789 34.4326C540.17 33.9012 541.994 33.6579 543.079 34.9839C543.725 35.7731 544.018 36.7805 544.485 37.6484C544.977 38.5608 545.373 39.6101 545.56 40.6381C546.078 43.4876 547.798 46.1111 548.238 48.971C548.403 50.0421 548.74 50.9813 548.74 52.0879C548.74 53.1057 548.74 54.1234 548.74 55.1412" stroke="white" stroke-width="2.96319" stroke-linecap="round" stroke-linejoin="round"/>
<path d="M484.479 42.1729C486.038 41.2223 487.494 39.968 489.237 39.3341C491.305 38.5822 493.393 37.7168 495.436 36.893C498.28 35.7464 501.145 35.4009 504.131 34.8359C505.158 34.6415 506.207 34.5205 507.251 34.5205C508.55 34.5205 509.829 34.9667 511.111 35.0142C514.865 35.1532 518.217 36.695 521.849 37.4553C523.556 37.8125 525.306 38.028 526.937 38.6621C527.732 38.9712 528.596 39.2332 529.344 39.6358C529.701 39.8279 530.113 39.9 530.455 40.1364C530.651 40.2722 530.809 40.4679 531.01 40.5684" stroke="white" stroke-width="2.96319" stroke-linecap="round" stroke-linejoin="round"/>
<path d="M468.394 58.3213C468.039 60.1397 466.926 62.0632 466.926 63.8967C466.926 66.6604 466.76 69.2994 467.644 71.95C468.138 73.433 468.242 75.0343 468.818 76.5147C469.292 77.7356 469.869 79.0125 470.154 80.2968C470.898 83.6419 473.403 87.2611 475.306 90.0293C477.173 92.7456 480.848 94.6357 483.506 96.485C486.309 98.4352 489.743 99.8071 493.043 100.724C499.12 102.412 505.998 101.751 512.263 101.751C514.788 101.751 517.084 101.285 519.811 100.577C522.939 99.765 524.741 99.3363 527.082 98.7511C528.308 98.4445 529.752 98.0046 530.832 97.3491C531.88 96.7123 533.325 95.789 534.483 95.3602C537.775 94.1409 539.231 90.7618 541.102 88.0893C543.371 84.8481 544.467 80.8198 545.634 77.1016C546.521 74.2769 547.721 71.7553 548.438 68.8852C549.307 65.4096 549.09 61.8864 549.09 58.3213" stroke="white" stroke-width="2.96319" stroke-linecap="round" stroke-linejoin="round"/>
<path d="M470.121 62.9713C470.504 61.8669 471.236 60.9007 472.062 60.0747C473.027 59.1103 473.734 57.7962 474.807 56.9246C475.756 56.1533 476.445 55.1443 477.526 54.5433C478.7 53.8914 480.273 53.6834 481.591 53.6834C482.976 53.6834 484.875 54.0228 486.067 53.3526C487.209 52.7101 488.328 52.0212 489.499 51.4049C490.284 50.9917 491.142 50.7337 491.947 50.376C492.198 50.2641 492.666 50.178 492.836 50.0085C493.048 49.7969 492.836 49.6186 492.836 49.3818C492.836 48.6742 492.542 48.0475 492.542 47.3332C492.542 47.1418 492.271 46.5286 492.483 46.4071C492.955 46.1377 493.247 46.2068 493.762 46.1131C494.721 45.9387 495.449 46.0155 496.312 46.4806C497.236 46.9777 498.332 46.9251 499.289 47.267C500.059 47.5419 501.226 47.5978 502.038 47.5978C502.938 47.5978 503.771 48.18 504.634 48.3032C505.299 48.3982 506.461 48.7334 507.592 48.9503" stroke="white" stroke-width="2.96319" stroke-linecap="round" stroke-linejoin="round"/>
<path d="M507.492 48.9203C509.29 48.9203 510.872 48.8783 512.644 48.4646C513.7 48.2184 515.054 47.8878 515.988 47.3328C517.371 46.5118 519.221 46.2016 520.788 46.0172C521.675 45.9128 523.056 45.8213 523.103 47.0388C523.133 47.8147 522.736 48.205 522.375 48.8542C521.982 49.562 521.31 51.0371 521.31 51.0371C521.31 51.0371 521.67 50.6066 521.912 50.4785C522.214 50.3186 522.576 50.3756 522.912 50.3756C523.82 50.3756 524.668 50.7148 525.514 51.0077C526.975 51.5134 528.22 52.177 529.586 52.8598C529.901 53.0174 530.678 53.683 530.975 53.683C531.798 53.683 532.593 53.8153 533.422 53.8153C534.196 53.8153 534.97 53.8153 535.745 53.8153C536.537 53.8153 537.087 54.3891 537.788 54.4767C538.123 54.5186 538.754 55.1883 538.978 55.4689C539.13 55.6588 541.148 57.5929 541.922 58.3794C543.027 59.2091 544.263 61.3068 544.941 62.1388C545.404 62.5394 547.499 65.537 547.499 65.7134" stroke="white" stroke-width="2.96319" stroke-linecap="round" stroke-linejoin="round"/>
<path d="M409.716 131.792C413.043 135.223 408.506 136.745 405.18 136.617C404.088 136.575 404.448 135.341 405.283 135.132C406.266 134.887 407.75 134.327 408.603 135.132C409.296 135.787 410.3 136.162 409.036 136.864C406.239 138.418 400.8 141.139 401.881 145.071C402.584 147.628 404.432 151.834 407.654 151.834C409.454 151.834 408.603 155.991 408.603 157.257C408.603 160.225 408.824 164.281 407.118 166.887C406.816 167.349 403.118 171.01 402.706 169.98C402.191 168.693 403.716 168.476 404.603 168.536C406.759 168.683 408.974 171.236 408.974 173.361C408.974 177.328 397.298 183.954 396.066 179.3C394.672 174.031 405.026 173.471 406.871 178.001C407.638 179.884 407.746 182.871 407.407 184.867C407.147 186.4 405.644 187.149 405.283 188.413C404.421 191.43 411.028 190.465 412.686 190.434C414.836 190.394 417.061 188.865 418.624 187.444C419.02 187.084 421.97 184.164 420.686 184.125C419.826 184.099 418.556 183.906 417.717 184.145C416.677 184.442 416.478 188.326 416.418 189.135C416.14 192.881 418.177 197.778 413.696 199.878C410.155 201.538 406.296 200.867 403.201 198.765C401.591 197.671 401.444 195.407 402.665 193.857C406.858 188.53 415.182 189.64 420.851 186.805C423.95 185.256 423.909 183.691 422.191 180.784C420.016 177.102 421.819 173.732 416.603 173.732C414.266 173.732 411.131 174.455 409.345 172.619C407.872 171.103 407.861 169.032 407.861 167.052C407.861 162.815 415.745 164.494 414.686 160.845C413.95 158.311 413.035 155.884 411.572 153.69C410.415 151.954 408.978 150.387 408.232 148.411C407.895 147.52 408.218 142.737 407.654 142.576C406.532 142.255 405.574 145.662 405.345 146.349C403.189 152.819 402.232 159.798 401.139 166.495C400.344 171.364 395.759 173.756 396.004 178.784C396.138 181.521 397.813 183.259 398.871 185.609C399.403 186.791 397.997 187.686 397.551 188.578C397.003 189.674 397.994 189.692 398.767 189.692C401.436 189.692 403.184 185.209 404.232 183.3C405.796 180.449 406.631 177.021 408.479 174.351C409.973 172.193 414.112 167.971 417.181 169.505C418.647 170.238 420.851 170.78 420.851 172.701C420.851 175.073 418.944 176.8 418.665 179.032C418.216 182.627 420.297 183.35 423.16 184.496C425.153 185.293 424.372 186.726 424.645 188.537C424.816 189.673 425.573 191.401 424.109 191.733C421.59 192.306 419.541 191.853 418.253 189.444C416.39 185.96 416.469 181.873 414.913 178.372C413.811 175.893 412.798 174.441 412.706 171.505C412.517 165.453 413.057 159.42 413.057 153.319" stroke="white" stroke-opacity="0.5" stroke-width="1.26994" stroke-linecap="round" stroke-linejoin="round"/>
<path d="M416.914 127.7C420.24 131.131 415.704 132.653 412.377 132.525C411.285 132.483 411.646 131.249 412.481 131.041C413.463 130.795 414.947 130.235 415.8 131.041C416.493 131.695 417.497 132.07 416.233 132.773C413.437 134.326 407.997 137.047 409.078 140.979C409.781 143.536 411.63 147.742 414.852 147.742C416.652 147.742 415.8 151.9 415.8 153.165C415.8 156.133 416.021 160.19 414.316 162.795C414.013 163.257 410.315 166.919 409.903 165.888C409.388 164.601 410.913 164.384 411.8 164.444C413.956 164.591 416.171 167.144 416.171 169.269C416.171 173.236 404.496 179.862 403.264 175.208C401.869 169.939 412.223 169.379 414.068 173.909C414.836 175.792 414.943 178.779 414.604 180.775C414.344 182.308 412.842 183.058 412.481 184.322C411.619 187.338 418.226 186.374 419.883 186.342C422.034 186.302 424.258 184.773 425.821 183.353C426.217 182.992 429.167 180.072 427.883 180.033C427.024 180.007 425.753 179.814 424.914 180.053C423.874 180.351 423.675 184.234 423.615 185.043C423.338 188.789 425.374 193.686 420.893 195.786C417.353 197.446 413.494 196.776 410.398 194.673C408.788 193.579 408.642 191.315 409.862 189.765C414.056 184.438 422.379 185.548 428.048 182.713C431.147 181.164 431.106 179.599 429.389 176.692C427.213 173.011 429.016 169.641 423.801 169.641C421.464 169.641 418.328 170.364 416.543 168.527C415.069 167.012 415.058 164.94 415.058 162.96C415.058 158.723 422.942 160.402 421.883 156.753C421.147 154.219 420.232 151.793 418.769 149.598C417.612 147.862 416.175 146.295 415.429 144.32C415.092 143.428 415.416 138.645 414.852 138.484C413.73 138.164 412.771 141.571 412.542 142.258C410.386 148.727 409.429 155.706 408.336 162.403C407.541 167.272 402.956 169.664 403.202 174.692C403.335 177.429 405.01 179.167 406.068 181.517C406.6 182.7 405.194 183.595 404.748 184.487C404.2 185.582 405.192 185.6 405.965 185.6C408.633 185.6 410.381 181.117 411.429 179.208C412.993 176.357 413.828 172.929 415.677 170.259C417.17 168.101 421.309 163.879 424.378 165.413C425.844 166.147 428.048 166.688 428.048 168.61C428.048 170.981 426.142 172.709 425.863 174.94C425.413 178.535 427.494 179.259 430.358 180.404C432.35 181.201 431.569 182.634 431.842 184.445C432.014 185.581 432.77 187.309 431.306 187.641C428.787 188.214 426.738 187.761 425.45 185.353C423.587 181.868 423.666 177.781 422.11 174.28C421.008 171.801 419.995 170.35 419.904 167.414C419.714 161.361 420.254 155.328 420.254 149.227" stroke="white" stroke-opacity="0.5" stroke-width="1.26994" stroke-linecap="round" stroke-linejoin="round"/>
<path d="M473.127 37.5423C474.218 37.5423 477.784 37.4135 477.833 39.1108C477.876 40.6102 476.797 41.6243 475.354 42.0737C474.581 42.3145 474.173 42.1949 474.173 41.3765C474.173 40.6064 474.883 40.5051 475.567 40.5051C476.205 40.5051 477.248 40.505 477.475 41.2991C477.554 41.5755 473.744 41.3683 473.301 41.3765C470.916 41.4211 470.169 43.2148 470.59 45.3463C470.948 47.154 474.258 48.2969 475.645 47.0214C476.195 46.5151 476.998 45.4563 476.429 44.6976C475.492 43.4479 475.017 44.5492 474.909 45.5206C474.702 47.3819 474.82 49.1229 474.87 50.9622C474.898 51.9842 474.64 53.0485 473.563 53.4699C472.914 53.7238 471.587 53.6623 471.394 52.7922C471.149 51.6909 472.547 50.6811 473.379 50.265C474.696 49.6066 476.765 48.9894 478.143 49.7809C479.361 50.4809 480.754 52.164 482.258 51.1074C484.003 49.8808 483.237 44.3129 480.854 46.2855C480.626 46.4738 477.895 48.7278 478.588 48.9482C480.357 49.5109 482.768 48.7672 484.359 48.0574C485.245 47.6621 489.371 46.0669 487.341 44.8041C485.665 43.7616 483.751 43.0561 481.977 42.1899C481.702 42.0557 480.964 41.6376 480.621 41.7638C480.29 41.886 480.316 41.8903 480.176 41.5315C479.892 40.8009 479.431 40.5285 478.724 40.2534C475.609 39.0421 484.25 44.0128 487.002 45.9079C487.472 46.2312 490.363 48.1799 488.116 47.8251C487.624 47.7474 487.551 44.9081 487.941 44.8622C489.336 44.6982 488.989 47.4946 488.435 48.0671C486.055 50.527 482.025 50.1533 478.917 50.0811C477.539 50.049 476.319 49.71 474.986 49.4324C474.3 49.2893 474.207 50.1128 473.96 50.6136C473.309 51.931 472.388 53.0255 471.694 54.2736C471.501 54.6221 471.135 54.6439 470.774 54.6125C469.321 54.4861 469.653 51.227 469.68 50.3716C469.743 48.3643 470.338 46.4238 472.12 45.2883C473.368 44.4932 474.844 44.6879 476.255 44.6879C476.828 44.6879 480.099 44.4256 480.099 45.3851" stroke="white" stroke-opacity="0.5" stroke-width="0.705522" stroke-linecap="round" stroke-linejoin="round"/>
<path d="M476.336 37.5364C477.427 37.5364 480.993 37.4076 481.042 39.105C481.085 40.6043 480.006 41.6185 478.563 42.0678C477.79 42.3086 477.382 42.1891 477.382 41.3707C477.382 40.6006 478.092 40.4993 478.776 40.4993C479.414 40.4993 480.457 40.4992 480.684 41.2932C480.763 41.5696 476.953 41.3624 476.51 41.3707C474.125 41.4153 473.377 43.2089 473.799 45.3405C474.157 47.1481 477.467 48.291 478.854 47.0156C479.404 46.5092 480.207 45.4505 479.638 44.6918C478.701 43.442 478.226 44.5434 478.118 45.5148C477.911 47.376 478.029 49.117 478.079 50.9563C478.107 51.9784 477.849 53.0427 476.772 53.4641C476.123 53.7179 474.796 53.6565 474.603 52.7863C474.358 51.685 475.756 50.6752 476.588 50.2592C477.905 49.6007 479.974 48.9836 481.352 49.7751C482.57 50.4751 483.963 52.1582 485.467 51.1016C487.212 49.875 486.446 44.3071 484.063 46.2797C483.835 46.4679 481.104 48.7219 481.797 48.9424C483.566 49.505 485.977 48.7614 487.568 48.0516C488.454 47.6562 492.58 46.061 490.55 44.7983C488.874 43.7557 486.96 43.0503 485.186 42.184C484.911 42.0499 484.173 41.6318 483.83 41.758C483.499 41.8801 483.525 41.8844 483.385 41.5256C483.101 40.795 482.64 40.5226 481.933 40.2475C478.818 39.0363 487.459 44.0069 490.211 45.9021C490.681 46.2254 493.572 48.1741 491.325 47.8192C490.833 47.7416 490.76 44.9023 491.15 44.8564C492.544 44.6923 492.198 47.4887 491.644 48.0613C489.264 50.5212 485.234 50.1475 482.126 50.0752C480.748 50.0432 479.528 49.7041 478.195 49.4265C477.509 49.2835 477.416 50.1069 477.169 50.6078C476.518 51.9251 475.597 53.0196 474.903 54.2677C474.71 54.6163 474.344 54.638 473.983 54.6066C472.53 54.4802 472.862 51.2212 472.889 50.3657C472.952 48.3584 473.547 46.418 475.329 45.2824C476.577 44.4873 478.053 44.6821 479.464 44.6821C480.037 44.6821 483.308 44.4197 483.308 45.3792" stroke="white" stroke-opacity="0.5" stroke-width="0.705522" stroke-linecap="round" stroke-linejoin="round"/>
<path d="M491.763 37.2532C492.384 37.2532 494.414 37.1798 494.442 38.1472C494.466 39.0018 493.852 39.5798 493.031 39.8359C492.591 39.9731 492.358 39.905 492.358 39.4385C492.358 38.9996 492.763 38.9419 493.152 38.9419C493.515 38.9419 494.109 38.9418 494.238 39.3944C494.283 39.5519 492.115 39.4338 491.862 39.4385C490.504 39.464 490.079 40.4862 490.319 41.7011C490.523 42.7314 492.407 43.3828 493.196 42.6558C493.51 42.3672 493.967 41.7638 493.643 41.3314C493.109 40.6191 492.839 41.2468 492.777 41.8004C492.66 42.8613 492.727 43.8535 492.755 44.9018C492.771 45.4843 492.624 46.0909 492.011 46.3311C491.642 46.4758 490.886 46.4408 490.776 45.9448C490.637 45.3171 491.433 44.7416 491.906 44.5045C492.656 44.1292 493.834 43.7775 494.618 44.2286C495.312 44.6275 496.105 45.5868 496.961 44.9846C497.955 44.2855 497.519 41.1121 496.162 42.2364C496.032 42.3437 494.478 43.6284 494.872 43.754C495.879 44.0747 497.252 43.6508 498.157 43.2463C498.662 43.021 501.011 42.1118 499.855 41.3921C498.901 40.7979 497.811 40.3958 496.801 39.9021C496.645 39.8256 496.225 39.5873 496.03 39.6593C495.841 39.7289 495.856 39.7313 495.776 39.5268C495.614 39.1104 495.352 38.9552 494.949 38.7984C493.176 38.1081 498.095 40.9411 499.662 42.0212C499.93 42.2054 501.576 43.3161 500.296 43.1138C500.016 43.0696 499.975 41.4514 500.197 41.4252C500.991 41.3317 500.794 42.9255 500.478 43.2518C499.123 44.6538 496.829 44.4408 495.059 44.3996C494.275 44.3814 493.58 44.1881 492.821 44.0299C492.431 43.9484 492.378 44.4177 492.237 44.7032C491.866 45.454 491.342 46.0778 490.947 46.7891C490.837 46.9878 490.629 47.0002 490.424 46.9823C489.596 46.9103 489.785 45.0528 489.801 44.5652C489.837 43.4212 490.175 42.3152 491.19 41.668C491.9 41.2149 492.741 41.3259 493.544 41.3259C493.87 41.3259 495.732 41.1763 495.732 41.7232" stroke="white" stroke-opacity="0.5" stroke-width="0.705522" stroke-linecap="round" stroke-linejoin="round"/>
<path d="M524.465 37.5364C523.844 37.5364 521.814 37.463 521.786 38.4304C521.762 39.285 522.376 39.863 523.198 40.1191C523.638 40.2563 523.87 40.1882 523.87 39.7217C523.87 39.2828 523.466 39.2251 523.076 39.2251C522.713 39.2251 522.12 39.225 521.99 39.6776C521.945 39.8351 524.114 39.717 524.366 39.7217C525.724 39.7472 526.15 40.7694 525.91 41.9843C525.706 43.0146 523.822 43.666 523.032 42.939C522.719 42.6504 522.262 42.047 522.586 41.6146C523.119 40.9023 523.39 41.53 523.451 42.0837C523.569 43.1445 523.501 44.1367 523.473 45.185C523.457 45.7676 523.604 46.3741 524.217 46.6143C524.587 46.759 525.342 46.724 525.452 46.228C525.591 45.6003 524.796 45.0248 524.322 44.7877C523.572 44.4124 522.394 44.0607 521.61 44.5118C520.916 44.9107 520.123 45.87 519.267 45.2678C518.274 44.5687 518.71 41.3953 520.067 42.5196C520.196 42.6269 521.751 43.9116 521.356 44.0372C520.35 44.3579 518.977 43.934 518.071 43.5295C517.567 43.3042 515.217 42.395 516.373 41.6753C517.328 41.0811 518.417 40.679 519.427 40.1853C519.584 40.1088 520.004 39.8705 520.199 39.9425C520.388 40.0121 520.373 40.0145 520.452 39.81C520.614 39.3936 520.877 39.2384 521.279 39.0816C523.052 38.3913 518.133 41.2243 516.566 42.3044C516.299 42.4886 514.653 43.5993 515.932 43.397C516.212 43.3528 516.254 41.7346 516.032 41.7084C515.238 41.6149 515.435 43.2087 515.75 43.535C517.106 44.937 519.4 44.724 521.169 44.6829C521.954 44.6646 522.648 44.4713 523.407 44.3131C523.798 44.2316 523.85 44.7009 523.991 44.9864C524.362 45.7372 524.886 46.361 525.281 47.0723C525.391 47.271 525.599 47.2834 525.805 47.2655C526.632 47.1935 526.443 45.336 526.428 44.8484C526.392 43.7044 526.053 42.5984 525.039 41.9512C524.328 41.4981 523.488 41.6091 522.685 41.6091C522.358 41.6091 520.497 41.4595 520.497 42.0064" stroke="white" stroke-opacity="0.5" stroke-width="0.705522" stroke-linecap="round" stroke-linejoin="round"/>
<path d="M500.815 34.5731C501.707 34.5731 504.622 34.4678 504.662 35.8558C504.697 37.0819 503.815 37.9112 502.635 38.2787C502.003 38.4755 501.67 38.3778 501.67 37.7086C501.67 37.0788 502.25 36.996 502.809 36.996C503.331 36.996 504.183 36.9959 504.369 37.6452C504.433 37.8712 501.319 37.7018 500.957 37.7086C499.007 37.745 498.396 39.2118 498.741 40.9549C499.034 42.433 501.739 43.3677 502.873 42.3246C503.323 41.9106 503.979 41.0448 503.514 40.4244C502.748 39.4024 502.359 40.303 502.271 41.0974C502.102 42.6194 502.199 44.0431 502.24 45.5472C502.262 46.383 502.051 47.2533 501.171 47.5979C500.641 47.8055 499.556 47.7552 499.398 47.0437C499.198 46.1431 500.34 45.3173 501.021 44.9771C502.097 44.4387 503.789 43.934 504.915 44.5812C505.911 45.1536 507.05 46.53 508.279 45.666C509.706 44.6629 509.08 40.1098 507.131 41.7229C506.945 41.8768 504.713 43.72 505.279 43.9003C506.725 44.3604 508.696 43.7523 509.996 43.1719C510.721 42.8486 514.094 41.5441 512.434 40.5115C511.064 39.6589 509.499 39.0821 508.049 38.3737C507.825 38.264 507.221 37.9221 506.941 38.0253C506.67 38.1251 506.691 38.1287 506.577 37.8353C506.345 37.2378 505.968 37.0151 505.39 36.7901C502.844 35.7996 509.907 39.8644 512.157 41.4141C512.541 41.6785 514.905 43.272 513.068 42.9818C512.666 42.9184 512.606 40.5965 512.925 40.559C514.065 40.4249 513.782 42.7116 513.329 43.1798C511.383 45.1914 508.088 44.8858 505.548 44.8267C504.421 44.8005 503.424 44.5232 502.335 44.2962C501.773 44.1792 501.698 44.8526 501.496 45.2622C500.963 46.3394 500.21 47.2345 499.643 48.2551C499.485 48.5401 499.187 48.5579 498.891 48.5322C497.703 48.4289 497.975 45.7638 497.997 45.0642C498.049 43.4228 498.535 41.836 499.992 40.9074C501.012 40.2572 502.219 40.4165 503.371 40.4165C503.84 40.4165 506.514 40.2019 506.514 40.9865" stroke="white" stroke-opacity="0.5" stroke-width="0.705522" stroke-linecap="round" stroke-linejoin="round"/>
<path d="M514.568 34.5731C513.676 34.5731 510.761 34.4678 510.721 35.8558C510.686 37.0819 511.568 37.9112 512.747 38.2787C513.379 38.4755 513.713 38.3778 513.713 37.7086C513.713 37.0788 513.133 36.996 512.573 36.996C512.052 36.996 511.2 36.9959 511.014 37.6452C510.95 37.8712 514.063 37.7018 514.426 37.7086C516.376 37.745 516.987 39.2118 516.642 40.9549C516.349 42.433 513.643 43.3677 512.51 42.3246C512.06 41.9106 511.404 41.0448 511.869 40.4244C512.635 39.4024 513.023 40.303 513.112 41.0974C513.281 42.6194 513.184 44.0431 513.143 45.5472C513.121 46.383 513.331 47.2533 514.212 47.5979C514.742 47.8055 515.827 47.7552 515.985 47.0437C516.185 46.1431 515.042 45.3173 514.362 44.9771C513.286 44.4387 511.594 43.934 510.468 44.5812C509.472 45.1536 508.333 46.53 507.104 45.666C505.677 44.6629 506.303 40.1098 508.252 41.7229C508.438 41.8768 510.67 43.72 510.104 43.9003C508.658 44.3604 506.687 43.7523 505.386 43.1719C504.662 42.8486 501.289 41.5441 502.949 40.5115C504.319 39.6589 505.883 39.0821 507.334 38.3737C507.558 38.264 508.162 37.9221 508.442 38.0253C508.713 38.1251 508.692 38.1287 508.806 37.8353C509.038 37.2378 509.415 37.0151 509.993 36.7901C512.539 35.7996 505.476 39.8644 503.226 41.4141C502.842 41.6785 500.478 43.272 502.315 42.9818C502.717 42.9184 502.777 40.5965 502.458 40.559C501.318 40.4249 501.601 42.7116 502.054 43.1798C504 45.1914 507.294 44.8858 509.835 44.8267C510.961 44.8005 511.959 44.5232 513.048 44.2962C513.61 44.1792 513.685 44.8526 513.887 45.2622C514.42 46.3394 515.173 47.2345 515.739 48.2551C515.898 48.5401 516.196 48.5579 516.491 48.5322C517.68 48.4289 517.408 45.7638 517.386 45.0642C517.334 43.4228 516.848 41.836 515.391 40.9074C514.371 40.2572 513.164 40.4165 512.011 40.4165C511.542 40.4165 508.869 40.2019 508.869 40.9865" stroke="white" stroke-opacity="0.5" stroke-width="0.705522" stroke-linecap="round" stroke-linejoin="round"/>
<path d="M545.256 40.3587C544.164 40.3587 540.598 40.2299 540.55 41.9272C540.507 43.4266 541.586 44.4407 543.029 44.8901C543.802 45.1309 544.21 45.0113 544.21 44.1929C544.21 43.4228 543.5 43.3215 542.816 43.3215C542.178 43.3215 541.135 43.3214 540.908 44.1155C540.829 44.3919 544.638 44.1847 545.081 44.1929C547.467 44.2375 548.214 46.0312 547.792 48.1628C547.435 49.9704 544.125 51.1133 542.738 49.8378C542.188 49.3315 541.385 48.2727 541.954 47.514C542.891 46.2643 543.366 47.3657 543.474 48.337C543.681 50.1983 543.562 51.9393 543.513 53.7786C543.485 54.8007 543.743 55.8649 544.82 56.2864C545.469 56.5402 546.795 56.4787 546.989 55.6086C547.234 54.5073 545.836 53.4975 545.004 53.0815C543.687 52.423 541.618 51.8058 540.24 52.5973C539.022 53.2973 537.629 54.9804 536.125 53.9238C534.38 52.6972 535.145 47.1293 537.529 49.102C537.756 49.2902 540.487 51.5442 539.795 51.7646C538.026 52.3273 535.614 51.5836 534.024 50.8738C533.138 50.4785 529.011 48.8833 531.042 47.6205C532.718 46.578 534.632 45.8726 536.406 45.0063C536.681 44.8721 537.419 44.454 537.761 44.5802C538.093 44.7024 538.067 44.7067 538.207 44.3479C538.491 43.6173 538.952 43.3449 539.659 43.0698C542.774 41.8586 534.133 46.8292 531.381 48.7243C530.911 49.0476 528.02 50.9963 530.267 50.6415C530.759 50.5639 530.832 47.7246 530.441 47.6786C529.047 47.5146 529.394 50.311 529.948 50.8835C532.328 53.3434 536.358 52.9698 539.466 52.8975C540.844 52.8654 542.064 52.5264 543.397 52.2488C544.083 52.1057 544.175 52.9292 544.423 53.43C545.074 54.7474 545.995 55.8419 546.689 57.09C546.882 57.4385 547.247 57.4603 547.608 57.4289C549.062 57.3025 548.73 54.0434 548.703 53.188C548.639 51.1807 548.045 49.2403 546.263 48.1047C545.015 47.3096 543.538 47.5043 542.128 47.5043C541.554 47.5043 538.284 47.242 538.284 48.2015" stroke="white" stroke-opacity="0.5" stroke-width="0.705522" stroke-linecap="round" stroke-linejoin="round"/>
<path d="M540.599 37.5374C539.508 37.5374 535.942 37.4086 535.894 39.106C535.851 40.6053 536.93 41.6195 538.372 42.0688C539.145 42.3096 539.554 42.19 539.554 41.3717C539.554 40.6015 538.844 40.5002 538.159 40.5002C537.522 40.5002 536.479 40.5002 536.252 41.2942C536.173 41.5706 539.982 41.3634 540.425 41.3717C542.811 41.4162 543.558 43.2099 543.136 45.3415C542.778 47.1491 539.468 48.292 538.082 47.0165C537.532 46.5102 536.729 45.4514 537.298 44.6927C538.235 43.443 538.71 44.5444 538.818 45.5158C539.025 47.377 538.906 49.118 538.857 50.9573C538.829 51.9794 539.087 53.0437 540.164 53.4651C540.812 53.7189 542.139 53.6574 542.333 52.7873C542.577 51.686 541.18 50.6762 540.348 50.2602C539.031 49.6017 536.962 48.9845 535.584 49.776C534.365 50.476 532.972 52.1591 531.469 51.1025C529.723 49.876 530.489 44.308 532.873 46.2807C533.1 46.4689 535.831 48.7229 535.138 48.9433C533.37 49.506 530.958 48.7624 529.368 48.0526C528.482 47.6572 524.355 46.062 526.386 44.7992C528.062 43.7567 529.976 43.0513 531.75 42.185C532.024 42.0508 532.763 41.6327 533.105 41.759C533.437 41.8811 533.411 41.8854 533.551 41.5266C533.835 40.796 534.295 40.5236 535.003 40.2485C538.117 39.0373 529.477 44.0079 526.724 45.903C526.255 46.2263 523.363 48.1751 525.611 47.8202C526.102 47.7426 526.176 44.9033 525.785 44.8573C524.391 44.6933 524.737 47.4897 525.291 48.0622C527.672 50.5221 531.702 50.1485 534.809 50.0762C536.188 50.0441 537.408 49.7051 538.74 49.4275C539.427 49.2844 539.519 50.1079 539.767 50.6087C540.418 51.9261 541.339 53.0206 542.032 54.2687C542.226 54.6172 542.591 54.639 542.952 54.6076C544.406 54.4812 544.073 51.2221 544.046 50.3667C543.983 48.3594 543.389 46.419 541.606 45.2834C540.359 44.4883 538.882 44.6831 537.472 44.6831C536.898 44.6831 533.628 44.4207 533.628 45.3802" stroke="white" stroke-opacity="0.5" stroke-width="0.705522" stroke-linecap="round" stroke-linejoin="round"/>
</svg>
