<svg width="1001" height="253" viewBox="0 0 1001 253" fill="none" xmlns="http://www.w3.org/2000/svg">
<path fill-rule="evenodd" clip-rule="evenodd" d="M1001 0H0V252.966H701.727V147.507H721.636V186.911C726.918 180.574 733.554 177.405 741.545 177.405C757.711 177.405 765.909 186.797 766.139 205.58V252.966H802.898C797.485 251.338 792.764 248.563 788.734 244.641C781.891 237.935 778.47 229.003 778.47 217.843V215.914C778.47 208.428 779.917 201.746 782.81 195.867C785.703 189.943 789.791 185.396 795.072 182.227C800.4 179.012 806.462 177.405 813.259 177.405C823.455 177.405 831.469 180.619 837.301 187.049C843.18 193.479 846.119 202.595 846.119 214.398V222.527H798.654C799.297 227.395 801.226 231.299 804.441 234.238C807.702 237.178 811.812 238.647 816.772 238.647C824.442 238.647 830.435 235.869 834.752 230.312L844.535 241.265C841.549 245.49 837.508 248.797 832.41 251.185C830.892 251.883 829.325 252.476 827.71 252.966H858.519V147.507H878.497V252.966H895.995V147.507H915.973V252.966H952.562C947.26 251.3 942.71 248.433 938.913 244.365C932.529 237.476 929.337 228.107 929.337 216.258V215.363C929.337 207.969 930.761 201.378 933.609 195.591C936.456 189.805 940.543 185.327 945.871 182.158C951.244 178.989 957.467 177.405 964.54 177.405C974.598 177.405 982.796 180.482 989.133 186.636C995.517 192.79 999.076 201.148 999.811 211.712L999.949 216.809C999.949 228.245 996.757 237.43 990.373 244.365C986.604 248.433 982.073 251.3 976.782 252.966H1001V0ZM746.23 252.966V206.131C746.23 201.86 745.311 198.714 743.474 196.694C741.637 194.627 738.583 193.594 734.312 193.594C728.479 193.594 724.254 195.844 721.636 200.345V252.966H746.23ZM803.546 197.52C806.026 194.857 809.24 193.525 813.19 193.525C817.415 193.525 820.676 194.742 822.972 197.176C825.269 199.564 826.463 202.963 826.555 207.371V208.956H798.861C799.55 203.996 801.112 200.184 803.546 197.52ZM953.242 233.067C950.578 229.301 949.246 223.882 949.246 216.809C949.246 208.864 950.578 203.008 953.242 199.243C955.906 195.431 959.672 193.525 964.54 193.525C969.454 193.525 973.266 195.431 975.975 199.243C978.685 203.054 980.04 208.428 980.04 215.363C980.04 223.492 978.685 229.416 975.975 233.136C973.266 236.81 969.5 238.647 964.678 238.647C959.718 238.647 955.906 236.787 953.242 233.067Z" fill="#14CCCC"/>
<circle cx="150.255" cy="126.554" r="73.3643" fill="#FF0084"/>
<rect x="505.367" y="53.1895" width="146.729" height="146.729" fill="#FFF27B"/>
<path d="M467.268 133.038C470.85 129.457 470.85 123.65 467.268 120.069L408.907 61.7082C405.326 58.1269 399.52 58.1269 395.938 61.7082C392.357 65.2895 392.357 71.096 395.938 74.6773L447.815 126.554L395.938 178.43C392.357 182.011 392.357 187.818 395.938 191.399C399.52 194.981 405.326 194.981 408.907 191.399L467.268 133.038ZM261.854 135.724L460.784 135.724L460.784 117.383L261.854 117.383L261.854 135.724Z" fill="#0B959E"/>
</svg>
